<svg width="32" height="32" viewBox="142 128 968 968" xmlns="http://www.w3.org/2000/svg">
  <g transform="matrix(1.217773,0,0,1.217773,7,7)">
    <path d="M508.489,692.925C521.418,692.231 523.888,687.299 560.57,666.618C569.245,661.727 662.539,605.235 666.527,604.801C668.938,604.538 668.846,605.412 794.206,680.978C809.485,690.187 811.293,690.856 809.347,692.307C800.659,698.785 799.472,696.896 693.775,762.97C685.665,768.04 685.522,767.78 592.238,826.086C587.608,828.98 544.982,855.623 534.264,862.109C531.323,863.889 519.491,873.123 500.485,869.582C488.939,867.431 465.569,850.239 424.199,824.981C414.321,818.95 277.433,733.83 241.293,712.855C238.509,711.24 206.991,692.948 206.64,692.412C205.513,690.694 207.557,691.037 272.761,650.914C276.547,648.585 307.601,629.476 320.249,622.063C345.05,607.53 346.294,602.305 357.781,609.035C368.235,615.16 475.623,678.077 488.372,685.728C500.467,692.987 500.895,692.12 508.489,692.925Z" fill="#A1AABC"/>
    <path d="M331.112,565.501C330.886,567.303 332.369,568.863 328.339,571.225C316.825,577.973 217.516,638.111 217.33,638.227C214.717,639.858 186.718,657.325 184.422,658.225C180.759,659.663 182.802,655.541 182.614,436.5C182.508,313.584 183.293,313.59 183.319,313.464C188.386,288.802 205.131,285.508 244.256,262.089C266.892,248.539 485.521,123.007 488.397,123.926C489.588,124.307 488.986,124.987 488.911,253.501C488.889,292.291 489.414,292.967 487.351,294.271C482.925,297.068 398.468,346.389 390.731,350.907C387.875,352.575 360.619,368.492 355.188,372.02C337.567,383.466 331.509,381.436 331.47,402.5C331.35,456.834 331.231,511.167 331.112,565.501Z" fill="#011C46"/>
    <path d="M685.133,415.5C685.135,399.509 686.334,389.411 680.353,383.643C673.972,377.488 571.235,318.727 561.651,313.245C527.813,293.891 526.774,293.828 526.793,290.498C526.91,269.969 527.069,270.038 527.088,249.499C527.189,140.167 526.862,124.983 527.394,124.407C528.078,123.667 532.899,125.664 533.352,125.852C550.306,132.876 785.436,269.289 807.251,281.945C833.313,297.065 832.602,306.416 832.586,339.5C832.575,364.778 832.443,651.774 832.351,655.472C832.282,658.249 830.196,656.683 801.674,639.217C696.449,574.784 695.637,576.142 686.717,570.182C684.436,568.658 685.285,567.786 685.133,415.5" fill="#0054FD"/>
  </g>
</svg>
